<svg width="512" height="512" viewBox="0 0 512 512" xmlns="http://www.w3.org/2000/svg" xmlns:xlink="http://www.w3.org/1999/xlink" overflow="hidden"><path d="M258.9 48C141.92 46.42 46.42 141.92 48 258.9 49.56 371.09 140.91 462.44 253.1 464 370.1 465.6 465.58 370.1 463.98 253.12 462.44 140.91 371.09 49.56 258.9 48ZM385.32 375.25C383.82 376.872 381.289 376.971 379.667 375.471 379.489 375.306 379.326 375.125 379.18 374.93 370.236 363.227 359.282 353.208 346.83 345.34 321.37 329 289.11 320 256 320 222.89 320 190.63 329 165.17 345.34 152.719 353.205 141.765 363.221 132.82 374.92 131.497 376.689 128.99 377.051 127.221 375.727 127.026 375.582 126.845 375.419 126.68 375.24 97.3367 343.564 80.7149 302.173 80 259 78.37 161.69 158.22 80.24 255.57 80 352.92 79.76 432 158.81 432 256 432.034 300.214 415.36 342.808 385.32 375.25Z" fill="#4CAF50"/><path d="M256 144C236.28 144 218.45 151.39 205.78 164.82 193.11 178.25 186.78 196.82 188.21 216.75 191.11 256 221.52 288 256 288 290.48 288 320.83 256 323.79 216.76 325.27 197.02 318.99 178.62 306.11 164.94 293.39 151.44 275.59 144 256 144Z" fill="#4CAF50"/></svg>