<svg width="722" height="844" xmlns="http://www.w3.org/2000/svg" xmlns:xlink="http://www.w3.org/1999/xlink" overflow="hidden"><defs><clipPath id="clip0"><path d="M-1 218 721 218 721 1062-1 1062Z" fill-rule="evenodd" clip-rule="evenodd"/></clipPath></defs><g clip-path="url(#clip0)" transform="translate(1 -218)"><rect x="0" y="219" width="720" height="842" fill="#EEEDEF"/><path d="M359.818 428 364.008 428 364.148 428.028C364.37 428.122 364.525 428.342 364.525 428.597 364.525 428.853 364.37 429.073 364.148 429.167L364.003 429.196 359.54 429.196C359.35 429.196 359.196 429.35 359.196 429.54L359.196 447.46C359.196 447.65 359.35 447.804 359.54 447.804L377.46 447.804C377.65 447.804 377.804 447.65 377.804 447.46L377.804 429.54C377.804 429.35 377.65 429.196 377.46 429.196L370.759 429.196 370.759 432.8C370.759 433.112 370.506 433.365 370.194 433.365L366.806 433.365C366.494 433.365 366.241 433.112 366.241 432.8L366.241 428.565C366.241 428.253 366.494 428 366.806 428L367.386 428 370.194 428 377.182 428C378.186 428 379 428.814 379 429.818L379 447.182C379 448.186 378.186 449 377.182 449L359.818 449C358.814 449 358 448.186 358 447.182L358 429.818C358 428.814 358.814 428 359.818 428Z" fill="#7F7F7F" fill-rule="evenodd"/><path d="M268.959 352.759 272.05 350.111 272.171 350.043C272.394 349.972 272.647 350.036 272.809 350.225 272.971 350.414 272.995 350.674 272.89 350.883L272.802 350.997 269.509 353.817C269.369 353.937 269.353 354.148 269.473 354.288L280.8 367.508C280.92 367.648 281.131 367.665 281.271 367.545L294.491 356.218C294.631 356.098 294.647 355.887 294.527 355.747L283.2 342.527C283.08 342.387 282.869 342.371 282.729 342.491L277.786 346.726 280.064 349.385C280.261 349.615 280.234 349.962 280.004 350.159L277.505 352.301C277.275 352.498 276.928 352.471 276.731 352.241L274.054 349.116C273.857 348.886 273.884 348.54 274.114 348.343L274.542 347.976 276.613 346.201 281.768 341.785C282.509 341.15 283.624 341.236 284.259 341.977L295.233 354.786C295.868 355.527 295.782 356.642 295.041 357.276L282.232 368.251C281.491 368.885 280.376 368.799 279.741 368.059L268.767 355.25C268.132 354.509 268.218 353.394 268.959 352.759Z" fill="#FFFF00" fill-rule="evenodd"/><path d="M439.951 342.626 443.799 343.952 443.918 344.023C444.092 344.179 444.166 344.43 444.085 344.665 444.004 344.9 443.791 345.052 443.558 345.068L443.415 345.049 439.317 343.636C439.142 343.576 438.952 343.669 438.892 343.843L433.219 360.301C433.158 360.476 433.251 360.666 433.426 360.726L449.884 366.399C450.058 366.459 450.248 366.367 450.308 366.192L455.982 349.734C456.042 349.56 455.949 349.37 455.775 349.31L449.62 347.188 448.479 350.498C448.38 350.785 448.068 350.937 447.782 350.838L444.67 349.765C444.383 349.667 444.231 349.354 444.33 349.068L445.671 345.178C445.77 344.892 446.082 344.74 446.368 344.838L446.901 345.022 449.48 345.911 455.897 348.123C456.82 348.441 457.31 349.447 456.992 350.369L451.495 366.315C451.177 367.237 450.171 367.727 449.249 367.409L433.303 361.912C432.38 361.594 431.891 360.589 432.208 359.667L437.706 343.72C438.023 342.798 439.029 342.308 439.951 342.626Z" fill="#00B050" fill-rule="evenodd"/><path d="M442.837 498.501 446.291 500.653 446.392 500.749C446.527 500.94 446.542 501.201 446.411 501.412 446.279 501.622 446.038 501.724 445.807 501.687L445.672 501.637 441.993 499.344C441.836 499.246 441.63 499.294 441.533 499.451L432.326 514.225C432.228 514.382 432.276 514.588 432.433 514.685L447.207 523.892C447.364 523.99 447.57 523.942 447.668 523.785L456.874 509.011C456.972 508.854 456.924 508.648 456.767 508.55L451.243 505.108 449.391 508.079C449.231 508.336 448.892 508.415 448.635 508.255L445.841 506.514C445.584 506.354 445.506 506.015 445.666 505.758L447.842 502.266C448.002 502.009 448.341 501.93 448.598 502.091L449.076 502.389 451.391 503.831 457.152 507.421C457.98 507.937 458.233 509.027 457.717 509.855L448.797 524.17C448.281 524.998 447.191 525.251 446.363 524.735L432.048 515.814C431.22 515.298 430.967 514.209 431.483 513.381L440.404 499.066C440.919 498.238 442.009 497.985 442.837 498.501Z" fill="#C00000" fill-rule="evenodd"/><path d="M263.62 516.838 267.155 514.821 267.287 514.777C267.519 514.75 267.756 514.86 267.879 515.076 268.002 515.292 267.977 515.552 267.835 515.738L267.726 515.832 263.961 517.981C263.801 518.072 263.745 518.276 263.836 518.437L272.463 533.557C272.554 533.717 272.758 533.773 272.919 533.682L288.039 525.055C288.199 524.963 288.255 524.759 288.164 524.599L279.537 509.479C279.446 509.318 279.242 509.263 279.081 509.354L273.427 512.58 275.162 515.621C275.312 515.884 275.221 516.219 274.958 516.37L272.099 518.001C271.835 518.151 271.5 518.059 271.35 517.796L269.311 514.222C269.161 513.959 269.253 513.624 269.516 513.474L270.006 513.195 272.375 511.843 278.271 508.479C279.118 507.996 280.197 508.291 280.68 509.138L289.039 523.788C289.522 524.636 289.227 525.714 288.38 526.198L273.729 534.557C272.882 535.04 271.803 534.745 271.32 533.898L262.961 519.247C262.478 518.4 262.773 517.321 263.62 516.838Z" fill="#FF0000" fill-rule="evenodd"/><path d="M120.17 498.689 123.789 500.552 123.897 500.638C124.047 500.818 124.084 501.077 123.97 501.298 123.856 501.519 123.624 501.639 123.391 501.622L123.253 501.582 119.398 499.598C119.234 499.513 119.032 499.578 118.948 499.742L110.98 515.22C110.896 515.384 110.96 515.585 111.124 515.67L126.602 523.638C126.766 523.722 126.968 523.658 127.052 523.494L135.02 508.016C135.104 507.852 135.04 507.65 134.876 507.566L129.088 504.586 127.485 507.699C127.347 507.969 127.016 508.075 126.746 507.936L123.82 506.429C123.55 506.291 123.444 505.96 123.583 505.691L125.466 502.032C125.605 501.763 125.936 501.657 126.205 501.796L126.707 502.054 129.132 503.302 135.167 506.409C136.034 506.856 136.375 507.921 135.929 508.788L128.209 523.785C127.762 524.652 126.697 524.993 125.83 524.547L110.833 516.827C109.966 516.38 109.625 515.315 110.071 514.448L117.791 499.451C118.238 498.584 119.303 498.242 120.17 498.689Z" fill="#ED7D31" fill-rule="evenodd"/><path d="M199.542 273.987 202.61 276.661 202.695 276.771C202.798 276.981 202.771 277.241 202.608 277.428 202.445 277.616 202.191 277.677 201.969 277.604L201.843 277.533 198.575 274.685C198.436 274.564 198.225 274.579 198.103 274.718L186.668 287.843C186.546 287.982 186.561 288.193 186.7 288.314L199.825 299.75C199.964 299.871 200.175 299.857 200.297 299.718L211.732 286.592C211.854 286.453 211.839 286.242 211.7 286.121L206.792 281.845 204.492 284.485C204.293 284.713 203.946 284.737 203.718 284.538L201.236 282.376C201.008 282.177 200.984 281.83 201.183 281.602L203.886 278.499C204.085 278.271 204.431 278.247 204.66 278.446L205.085 278.817 207.141 280.608 212.259 285.067C212.995 285.708 213.071 286.824 212.431 287.56L201.35 300.277C200.709 301.012 199.594 301.089 198.858 300.448L186.141 289.368C185.405 288.727 185.329 287.611 185.969 286.876L197.05 274.159C197.691 273.423 198.806 273.346 199.542 273.987Z" fill="#5B9BD5" fill-rule="evenodd"/><path d="M194.197 582.765 198.081 583.98 198.203 584.047C198.381 584.198 198.461 584.447 198.387 584.684 198.313 584.921 198.105 585.08 197.872 585.102L197.729 585.087 193.592 583.793C193.415 583.738 193.228 583.836 193.173 584.012L187.975 600.626C187.92 600.802 188.018 600.99 188.194 601.045L204.808 606.243C204.985 606.298 205.172 606.2 205.227 606.024L210.425 589.409C210.48 589.233 210.382 589.046 210.206 588.991L203.993 587.047 202.948 590.389C202.857 590.678 202.549 590.839 202.26 590.748L199.119 589.766C198.83 589.675 198.668 589.367 198.759 589.078L199.987 585.151C200.078 584.862 200.386 584.701 200.675 584.792L201.213 584.96 203.816 585.774 210.294 587.801C211.225 588.092 211.744 589.083 211.453 590.014L206.417 606.112C206.125 607.043 205.134 607.562 204.203 607.271L188.106 602.234C187.175 601.943 186.656 600.952 186.947 600.021L191.983 583.923C192.275 582.992 193.266 582.474 194.197 582.765Z" fill="#ED7D31" fill-rule="evenodd"/><path d="M563.619 522.734 567.359 524.338 567.473 524.417C567.635 524.585 567.69 524.841 567.592 525.069 567.494 525.298 567.271 525.434 567.038 525.433L566.897 525.403 562.912 523.695C562.743 523.622 562.546 523.7 562.474 523.87L555.612 539.869C555.539 540.039 555.618 540.235 555.788 540.308L571.787 547.169C571.956 547.242 572.153 547.163 572.225 546.994L579.087 530.995C579.16 530.825 579.081 530.629 578.911 530.556L572.929 527.99 571.549 531.208C571.429 531.487 571.107 531.616 570.828 531.496L567.803 530.199C567.525 530.079 567.396 529.757 567.515 529.478L569.137 525.697C569.256 525.418 569.579 525.289 569.857 525.409L570.375 525.631 572.882 526.706 579.121 529.382C580.017 529.766 580.432 530.805 580.048 531.701L573.4 547.203C573.015 548.1 571.977 548.515 571.08 548.13L555.578 541.482C554.682 541.098 554.267 540.059 554.651 539.163L561.299 523.661C561.684 522.764 562.722 522.349 563.619 522.734Z" fill="#0070C0" fill-rule="evenodd"/><path d="M142.107 362.598 145.915 364.034 146.033 364.108C146.202 364.269 146.268 364.522 146.181 364.754 146.093 364.987 145.876 365.133 145.643 365.143L145.501 365.119 141.444 363.59C141.271 363.525 141.079 363.612 141.014 363.785L134.872 380.074C134.807 380.246 134.894 380.439 135.067 380.504L151.356 386.646C151.529 386.711 151.721 386.624 151.786 386.451L157.928 370.162C157.993 369.989 157.906 369.796 157.733 369.731L151.642 367.435 150.407 370.711C150.3 370.995 149.983 371.138 149.7 371.031L146.62 369.87C146.336 369.763 146.193 369.446 146.3 369.163L147.752 365.313C147.858 365.029 148.175 364.886 148.458 364.993L148.986 365.192 151.538 366.154 157.89 368.549C158.803 368.893 159.264 369.912 158.919 370.825L152.969 386.608C152.625 387.52 151.606 387.981 150.693 387.637L134.91 381.687C133.997 381.343 133.536 380.324 133.881 379.411L139.831 363.628C140.175 362.715 141.194 362.254 142.107 362.598Z" fill="#A5A5A5" fill-rule="evenodd"/><path d="M540.371 278.876 544.258 280.083 544.379 280.149C544.558 280.3 544.639 280.548 544.565 280.786 544.492 281.023 544.284 281.182 544.051 281.205L543.908 281.19 539.768 279.905C539.592 279.85 539.404 279.948 539.35 280.125L534.187 296.75C534.132 296.926 534.231 297.113 534.407 297.168L551.032 302.331C551.208 302.386 551.396 302.287 551.45 302.111L556.613 285.486C556.668 285.309 556.569 285.122 556.393 285.068L550.176 283.137 549.138 286.481C549.048 286.77 548.74 286.932 548.451 286.842L545.308 285.866C545.018 285.776 544.857 285.469 544.946 285.179L546.167 281.25C546.256 280.96 546.564 280.799 546.853 280.889L547.392 281.056 549.997 281.865 556.479 283.878C557.411 284.167 557.932 285.157 557.642 286.089L552.64 302.197C552.351 303.129 551.361 303.649 550.429 303.36L534.321 298.358C533.389 298.068 532.868 297.079 533.158 296.147L538.16 280.039C538.449 279.107 539.439 278.586 540.371 278.876Z" fill="#7030A0" fill-rule="evenodd"/><path d="M644.397 592.758 645.909 588.979 645.985 588.863C646.149 588.697 646.404 588.636 646.634 588.729 646.865 588.821 647.007 589.04 647.012 589.274L646.986 589.416 645.375 593.441C645.306 593.612 645.39 593.807 645.561 593.875L661.723 600.343C661.894 600.412 662.089 600.328 662.157 600.157L668.625 583.995C668.694 583.823 668.61 583.629 668.439 583.56L652.277 577.093C652.106 577.024 651.911 577.107 651.843 577.279L649.424 583.322 652.675 584.623C652.956 584.736 653.093 585.055 652.98 585.336L651.757 588.392C651.645 588.674 651.326 588.811 651.044 588.698L647.224 587.169C646.943 587.057 646.806 586.737 646.919 586.456L647.128 585.933 648.142 583.4 650.663 577.098C651.026 576.193 652.054 575.752 652.96 576.115L668.62 582.381C669.525 582.744 669.966 583.772 669.603 584.678L663.337 600.337C662.974 601.243 661.946 601.683 661.04 601.321L645.38 595.054C644.475 594.692 644.034 593.664 644.397 592.758Z" fill="#595959" fill-rule="evenodd"/><path d="M34.4732 572.382 38.2252 570.805 38.3613 570.778C38.5951 570.778 38.817 570.916 38.9133 571.146 39.0096 571.375 38.9529 571.63 38.7897 571.797L38.6706 571.878 34.6738 573.558C34.5037 573.629 34.4238 573.825 34.4953 573.995L41.2401 590.044C41.3115 590.214 41.5074 590.294 41.6775 590.223L57.7262 583.478C57.8963 583.406 57.9762 583.21 57.9047 583.04L51.1599 566.992C51.0885 566.822 50.8926 566.742 50.7225 566.813L44.7212 569.335 46.0778 572.563C46.1952 572.843 46.0639 573.164 45.7846 573.281L42.7501 574.557C42.4707 574.674 42.1492 574.543 42.0318 574.264L40.4376 570.47C40.3202 570.191 40.4515 569.87 40.7308 569.752L41.2506 569.534 43.7653 568.477 50.0229 565.847C50.9223 565.469 51.9578 565.892 52.3358 566.791L58.8708 582.341C59.2488 583.24 58.8261 584.276 57.9268 584.654L42.3771 591.189C41.4777 591.567 40.4422 591.144 40.0642 590.245L33.5292 574.695C33.1512 573.795 33.5739 572.76 34.4732 572.382Z" fill="#4472C4" fill-rule="evenodd"/><path d="M61.1886 297.303 64.6112 295.101 64.7404 295.051C64.9708 295.011 65.2133 295.108 65.3478 295.317 65.4823 295.526 65.4706 295.787 65.3388 295.98L65.2355 296.081 61.5895 298.427C61.4344 298.526 61.3895 298.733 61.4894 298.888L70.9088 313.528C71.0087 313.683 71.2154 313.728 71.3705 313.628L86.0105 304.209C86.1656 304.109 86.2105 303.902 86.1106 303.747L76.6911 289.107C76.5913 288.952 76.3846 288.907 76.2295 289.007L70.7549 292.53 72.6495 295.474C72.8135 295.729 72.7398 296.068 72.485 296.232L69.7169 298.013C69.462 298.177 69.1226 298.104 68.9586 297.849L66.7323 294.389C66.5684 294.134 66.642 293.794 66.8968 293.63L67.371 293.325 69.665 291.849 75.3733 288.177C76.1937 287.649 77.2867 287.886 77.8146 288.706L86.9411 302.891C87.469 303.711 87.2319 304.805 86.4114 305.332L72.2267 314.459C71.4063 314.987 70.3133 314.75 69.7854 313.929L60.6588 299.745C60.131 298.924 60.3681 297.831 61.1886 297.303Z" fill="#70AD47" fill-rule="evenodd"/><path d="M356.22 293.14 359.834 291.268 359.967 291.23C360.2 291.212 360.432 291.331 360.547 291.552 360.661 291.773 360.625 292.032 360.476 292.212L360.363 292.302 356.514 294.296C356.35 294.381 356.286 294.582 356.371 294.746L364.378 310.204C364.463 310.368 364.665 310.432 364.828 310.347L380.286 302.34C380.45 302.255 380.514 302.053 380.429 301.889L372.422 286.432C372.337 286.268 372.135 286.204 371.971 286.289L366.191 289.283 367.802 292.392C367.941 292.661 367.836 292.992 367.567 293.132L364.644 294.646C364.375 294.785 364.044 294.68 363.905 294.411L362.012 290.757C361.873 290.488 361.978 290.157 362.247 290.018L362.748 289.759 365.17 288.504 371.197 285.382C372.063 284.933 373.129 285.271 373.578 286.138L381.336 301.115C381.785 301.981 381.446 303.047 380.58 303.496L365.603 311.254C364.737 311.703 363.671 311.364 363.222 310.498L355.464 295.521C355.015 294.655 355.354 293.589 356.22 293.14Z" fill="#92D050" fill-rule="evenodd"/><path d="M373.516 600.937 371.616 597.338 371.577 597.205C371.557 596.972 371.675 596.739 371.895 596.623 372.115 596.507 372.374 596.541 372.555 596.689L372.646 596.8 374.67 600.634C374.756 600.798 374.958 600.86 375.121 600.774L390.517 592.648C390.68 592.562 390.742 592.36 390.656 592.197L382.53 576.801C382.444 576.638 382.242 576.576 382.079 576.662L366.683 584.787C366.52 584.874 366.458 585.076 366.544 585.239L369.582 590.996 372.679 589.362C372.947 589.22 373.279 589.323 373.42 589.591L374.957 592.502C375.098 592.77 374.996 593.102 374.728 593.243L371.089 595.164C370.821 595.305 370.489 595.202 370.348 594.934L370.084 594.436 368.811 592.023 365.643 586.02C365.187 585.158 365.518 584.089 366.38 583.634L381.297 575.761C382.16 575.305 383.229 575.635 383.684 576.498L391.557 591.415C392.013 592.278 391.682 593.346 390.82 593.802L375.903 601.675C375.04 602.13 373.971 601.8 373.516 600.937Z" fill="#595959" fill-rule="evenodd"/><path d="M195.804 442.617 199.537 440.997 199.673 440.968C199.907 440.966 200.13 441.102 200.229 441.33 200.328 441.558 200.274 441.813 200.113 441.983L199.995 442.065 196.018 443.79C195.848 443.864 195.771 444.061 195.844 444.23L202.773 460.2C202.846 460.369 203.043 460.447 203.212 460.374L219.182 453.445C219.352 453.372 219.429 453.175 219.356 453.006L212.427 437.035C212.354 436.866 212.157 436.788 211.988 436.862L206.016 439.453 207.409 442.665C207.53 442.943 207.402 443.266 207.125 443.387L204.105 444.697C203.827 444.817 203.504 444.69 203.383 444.412L201.746 440.637C201.625 440.359 201.753 440.036 202.031 439.915L202.548 439.691 205.05 438.605 211.277 435.904C212.172 435.516 213.212 435.926 213.601 436.821L220.314 452.295C220.702 453.19 220.291 454.23 219.396 454.618L203.923 461.332C203.028 461.72 201.988 461.309 201.599 460.414L194.886 444.941C194.498 444.046 194.909 443.005 195.804 442.617Z" fill="#FFC000" fill-rule="evenodd"/><path d="M669.446 310.62 665.94 312.687 665.809 312.732C665.577 312.763 665.339 312.656 665.213 312.442 665.086 312.228 665.108 311.968 665.247 311.78L665.354 311.684 669.089 309.481C669.248 309.388 669.301 309.183 669.207 309.024L660.364 294.029C660.27 293.87 660.065 293.817 659.906 293.911L644.911 302.754C644.752 302.848 644.699 303.053 644.793 303.212L653.636 318.207C653.73 318.366 653.935 318.418 654.094 318.325L659.701 315.018 657.922 312.002C657.769 311.741 657.855 311.404 658.116 311.251L660.952 309.578C661.213 309.425 661.549 309.511 661.703 309.772L663.793 313.316C663.947 313.577 663.86 313.914 663.599 314.068L663.113 314.354 660.764 315.74 654.917 319.188C654.077 319.683 652.994 319.404 652.498 318.564L643.93 304.035C643.434 303.195 643.714 302.112 644.554 301.616L659.083 293.048C659.923 292.552 661.006 292.832 661.502 293.672L670.07 308.201C670.566 309.041 670.286 310.124 669.446 310.62Z" fill="#595959" fill-rule="evenodd"/><path d="M569.975 405.89 573.641 404.123 573.776 404.089C574.009 404.078 574.238 404.204 574.346 404.428 574.454 404.652 574.41 404.91 574.256 405.085L574.141 405.172 570.235 407.054C570.069 407.134 569.999 407.334 570.079 407.5L577.636 423.183C577.716 423.349 577.916 423.419 578.082 423.339L593.765 415.782C593.931 415.702 594.001 415.502 593.921 415.336L586.364 399.653C586.284 399.487 586.084 399.417 585.918 399.497L580.053 402.323 581.573 405.477C581.705 405.75 581.59 406.078 581.317 406.21L578.352 407.639C578.079 407.77 577.751 407.655 577.62 407.382L575.833 403.676C575.702 403.403 575.817 403.075 576.09 402.943L576.597 402.699 579.055 401.515 585.17 398.568C586.049 398.145 587.104 398.514 587.528 399.393L594.85 414.588C595.273 415.466 594.904 416.522 594.025 416.946L578.83 424.268C577.951 424.691 576.896 424.322 576.472 423.443L569.15 408.248C568.727 407.369 569.096 406.314 569.975 405.89Z" fill="#00B0F0" fill-rule="evenodd"/><path d="M1.81839 0 6.00795 0 6.14798 0.0269238C6.36968 0.116232 6.52524 0.325297 6.52524 0.568968 6.52524 0.812639 6.36968 1.02171 6.14798 1.11101L6.00271 1.13894 1.53977 1.13894C1.34985 1.13894 1.19589 1.28557 1.19589 1.46645L1.19589 18.5336C1.19589 18.7144 1.34985 18.8611 1.53977 18.8611L19.4602 18.8611C19.6501 18.8611 19.8041 18.7144 19.8041 18.5336L19.8041 1.46645C19.8041 1.28557 19.6501 1.13894 19.4602 1.13894L12.759 1.13894 12.759 4.57171C12.759 4.86876 12.5061 5.10956 12.1942 5.10956L8.80578 5.10956C8.49388 5.10956 8.24104 4.86876 8.24104 4.57171L8.24104 0.537849C8.24104 0.240804 8.49388 0 8.80578 0L9.3862 0 12.1942 0 19.1816 0C20.1859 0 21 0.775355 21 1.7318L21 18.2682C21 19.2246 20.1859 20 19.1816 20L1.81839 20C0.814123 20 0 19.2246 0 18.2682L0 1.7318C0 0.775355 0.814123 0 1.81839 0Z" fill="#7F7F7F" fill-rule="evenodd" transform="matrix(-1 -8.74228e-08 -8.74228e-08 1 362 826)"/><path d="M1.76644 0 5.8363 0 5.97233 0.0274623C6.18769 0.118557 6.3388 0.331803 6.3388 0.580348 6.3388 0.828892 6.18769 1.04214 5.97233 1.13323L5.83121 1.16172 1.49578 1.16172C1.31129 1.16172 1.16172 1.31129 1.16172 1.49578L1.16172 18.9042C1.16172 19.0887 1.31129 19.2383 1.49578 19.2383L18.9042 19.2383C19.0887 19.2383 19.2383 19.0887 19.2383 18.9042L19.2383 1.49578C19.2383 1.31129 19.0887 1.16172 18.9042 1.16172L12.3944 1.16172 12.3944 4.66315C12.3944 4.96613 12.1488 5.21175 11.8458 5.21175L8.55418 5.21175C8.2512 5.21175 8.00558 4.96613 8.00558 4.66315L8.00558 0.548606C8.00558 0.245621 8.2512 0 8.55418 0L9.11803 0 11.8458 0 18.6336 0C19.6091 0 20.4 0.790862 20.4 1.76644L20.4 18.6336C20.4 19.6091 19.6091 20.4 18.6336 20.4L1.76644 20.4C0.790862 20.4 0 19.6091 0 18.6336L0 1.76644C0 0.790862 0.790862 0 1.76644 0Z" fill="#FFFF00" fill-rule="evenodd" transform="matrix(-0.759394 -0.650631 -0.650631 0.759394 452.382 751.673)"/><path d="M1.76644 0 5.8363 0 5.97233 0.0274623C6.18769 0.118557 6.3388 0.331803 6.3388 0.580348 6.3388 0.828892 6.18769 1.04214 5.97233 1.13323L5.83121 1.16172 1.49578 1.16172C1.31129 1.16172 1.16172 1.31129 1.16172 1.49578L1.16172 18.9042C1.16172 19.0887 1.31129 19.2383 1.49578 19.2383L18.9042 19.2383C19.0887 19.2383 19.2383 19.0887 19.2383 18.9042L19.2383 1.49578C19.2383 1.31129 19.0887 1.16172 18.9042 1.16172L12.3944 1.16172 12.3944 4.66315C12.3944 4.96613 12.1488 5.21175 11.8458 5.21175L8.55418 5.21175C8.2512 5.21175 8.00558 4.96613 8.00558 4.66315L8.00558 0.548606C8.00558 0.245621 8.2512 0 8.55418 0L9.11803 0 11.8458 0 18.6336 0C19.6091 0 20.4 0.790862 20.4 1.76644L20.4 18.6336C20.4 19.6091 19.6091 20.4 18.6336 20.4L1.76644 20.4C0.790862 20.4 0 19.6091 0 18.6336L0 1.76644C0 0.790862 0.790862 0 1.76644 0Z" fill="#00B050" fill-rule="evenodd" transform="matrix(-0.945404 0.325902 0.325902 0.945404 281.719 739.815)"/><path d="M1.76644 0 5.8363 0 5.97233 0.0274623C6.18769 0.118557 6.3388 0.331803 6.3388 0.580348 6.3388 0.828892 6.18769 1.04214 5.97233 1.13323L5.83121 1.16172 1.49578 1.16172C1.31129 1.16172 1.16172 1.31129 1.16172 1.49578L1.16172 18.9042C1.16172 19.0887 1.31129 19.2383 1.49578 19.2383L18.9042 19.2383C19.0887 19.2383 19.2383 19.0887 19.2383 18.9042L19.2383 1.49578C19.2383 1.31129 19.0887 1.16172 18.9042 1.16172L12.3944 1.16172 12.3944 4.66315C12.3944 4.96613 12.1488 5.21175 11.8458 5.21175L8.55418 5.21175C8.2512 5.21175 8.00558 4.96613 8.00558 4.66315L8.00558 0.548606C8.00558 0.245621 8.2512 0 8.55418 0L9.11803 0 11.8458 0 18.6336 0C19.6091 0 20.4 0.790862 20.4 1.76644L20.4 18.6336C20.4 19.6091 19.6091 20.4 18.6336 20.4L1.76644 20.4C0.790862 20.4 0 19.6091 0 18.6336L0 1.76644C0 0.790862 0.790862 0 1.76644 0Z" fill="#C00000" fill-rule="evenodd" transform="matrix(-0.848704 0.528868 0.528868 0.848704 278.662 895.331)"/><path d="M1.76644 0 5.8363 0 5.97233 0.0274623C6.18769 0.118557 6.3388 0.331803 6.3388 0.580348 6.3388 0.828892 6.18769 1.04214 5.97233 1.13323L5.83121 1.16172 1.49578 1.16172C1.31129 1.16172 1.16172 1.31129 1.16172 1.49578L1.16172 18.9042C1.16172 19.0887 1.31129 19.2383 1.49578 19.2383L18.9042 19.2383C19.0887 19.2383 19.2383 19.0887 19.2383 18.9042L19.2383 1.49578C19.2383 1.31129 19.0887 1.16172 18.9042 1.16172L12.3944 1.16172 12.3944 4.66315C12.3944 4.96613 12.1488 5.21175 11.8458 5.21175L8.55418 5.21175C8.2512 5.21175 8.00558 4.96613 8.00558 4.66315L8.00558 0.548606C8.00558 0.245621 8.2512 0 8.55418 0L9.11803 0 11.8458 0 18.6336 0C19.6091 0 20.4 0.790862 20.4 1.76644L20.4 18.6336C20.4 19.6091 19.6091 20.4 18.6336 20.4L1.76644 20.4C0.790862 20.4 0 19.6091 0 18.6336L0 1.76644C0 0.790862 0.790862 0 1.76644 0Z" fill="#FF0000" fill-rule="evenodd" transform="matrix(-0.868575 -0.495557 -0.495557 0.868575 457.914 915.478)"/><path d="M1.76644 0 5.8363 0 5.97233 0.0274623C6.18769 0.118557 6.3388 0.331803 6.3388 0.580348 6.3388 0.828892 6.18769 1.04214 5.97233 1.13323L5.83121 1.16172 1.49578 1.16172C1.31129 1.16172 1.16172 1.31129 1.16172 1.49578L1.16172 18.9042C1.16172 19.0887 1.31129 19.2383 1.49578 19.2383L18.9042 19.2383C19.0887 19.2383 19.2383 19.0887 19.2383 18.9042L19.2383 1.49578C19.2383 1.31129 19.0887 1.16172 18.9042 1.16172L12.3944 1.16172 12.3944 4.66315C12.3944 4.96613 12.1488 5.21175 11.8458 5.21175L8.55418 5.21175C8.2512 5.21175 8.00558 4.96613 8.00558 4.66315L8.00558 0.548606C8.00558 0.245621 8.2512 0 8.55418 0L9.11803 0 11.8458 0 18.6336 0C19.6091 0 20.4 0.790862 20.4 1.76644L20.4 18.6336C20.4 19.6091 19.6091 20.4 18.6336 20.4L1.76644 20.4C0.790862 20.4 0 19.6091 0 18.6336L0 1.76644C0 0.790862 0.790862 0 1.76644 0Z" fill="#ED7D31" fill-rule="evenodd" transform="matrix(-0.889105 0.457703 0.457703 0.889105 601.4 895.645)"/><path d="M1.76644 0 5.8363 0 5.97233 0.0274623C6.18769 0.118557 6.3388 0.331803 6.3388 0.580348 6.3388 0.828892 6.18769 1.04214 5.97233 1.13323L5.83121 1.16172 1.49578 1.16172C1.31129 1.16172 1.16172 1.31129 1.16172 1.49578L1.16172 18.9042C1.16172 19.0887 1.31129 19.2383 1.49578 19.2383L18.9042 19.2383C19.0887 19.2383 19.2383 19.0887 19.2383 18.9042L19.2383 1.49578C19.2383 1.31129 19.0887 1.16172 18.9042 1.16172L12.3944 1.16172 12.3944 4.66315C12.3944 4.96613 12.1488 5.21175 11.8458 5.21175L8.55418 5.21175C8.2512 5.21175 8.00558 4.96613 8.00558 4.66315L8.00558 0.548606C8.00558 0.245621 8.2512 0 8.55418 0L9.11803 0 11.8458 0 18.6336 0C19.6091 0 20.4 0.790862 20.4 1.76644L20.4 18.6336C20.4 19.6091 19.6091 20.4 18.6336 20.4L1.76644 20.4C0.790862 20.4 0 19.6091 0 18.6336L0 1.76644C0 0.790862 0.790862 0 1.76644 0Z" fill="#5B9BD5" fill-rule="evenodd" transform="matrix(-0.753962 0.656918 0.656918 0.753962 521.79 670.591)"/><path d="M1.76644 0 5.8363 0 5.97233 0.0274623C6.18769 0.118557 6.3388 0.331803 6.3388 0.580348 6.3388 0.828892 6.18769 1.04214 5.97233 1.13323L5.83121 1.16172 1.49578 1.16172C1.31129 1.16172 1.16172 1.31129 1.16172 1.49578L1.16172 18.9042C1.16172 19.0887 1.31129 19.2383 1.49578 19.2383L18.9042 19.2383C19.0887 19.2383 19.2383 19.0887 19.2383 18.9042L19.2383 1.49578C19.2383 1.31129 19.0887 1.16172 18.9042 1.16172L12.3944 1.16172 12.3944 4.66315C12.3944 4.96613 12.1488 5.21175 11.8458 5.21175L8.55418 5.21175C8.2512 5.21175 8.00558 4.96613 8.00558 4.66315L8.00558 0.548606C8.00558 0.245621 8.2512 0 8.55418 0L9.11803 0 11.8458 0 18.6336 0C19.6091 0 20.4 0.790862 20.4 1.76644L20.4 18.6336C20.4 19.6091 19.6091 20.4 18.6336 20.4L1.76644 20.4C0.790862 20.4 0 19.6091 0 18.6336L0 1.76644C0 0.790862 0.790862 0 1.76644 0Z" fill="#ED7D31" fill-rule="evenodd" transform="matrix(-0.954383 0.298585 0.298585 0.954383 527.489 980.002)"/><path d="M1.76644 0 5.8363 0 5.97233 0.0274623C6.18769 0.118557 6.3388 0.331803 6.3388 0.580348 6.3388 0.828892 6.18769 1.04214 5.97233 1.13323L5.83121 1.16172 1.49578 1.16172C1.31129 1.16172 1.16172 1.31129 1.16172 1.49578L1.16172 18.9042C1.16172 19.0887 1.31129 19.2383 1.49578 19.2383L18.9042 19.2383C19.0887 19.2383 19.2383 19.0887 19.2383 18.9042L19.2383 1.49578C19.2383 1.31129 19.0887 1.16172 18.9042 1.16172L12.3944 1.16172 12.3944 4.66315C12.3944 4.96613 12.1488 5.21175 11.8458 5.21175L8.55418 5.21175C8.2512 5.21175 8.00558 4.96613 8.00558 4.66315L8.00558 0.548606C8.00558 0.245621 8.2512 0 8.55418 0L9.11803 0 11.8458 0 18.6336 0C19.6091 0 20.4 0.790862 20.4 1.76644L20.4 18.6336C20.4 19.6091 19.6091 20.4 18.6336 20.4L1.76644 20.4C0.790862 20.4 0 19.6091 0 18.6336L0 1.76644C0 0.790862 0.790862 0 1.76644 0Z" fill="#0070C0" fill-rule="evenodd" transform="matrix(-0.91905 0.394142 0.394142 0.91905 158.005 919.802)"/><path d="M1.76644 0 5.8363 0 5.97233 0.0274623C6.18769 0.118557 6.3388 0.331803 6.3388 0.580348 6.3388 0.828892 6.18769 1.04214 5.97233 1.13323L5.83121 1.16172 1.49578 1.16172C1.31129 1.16172 1.16172 1.31129 1.16172 1.49578L1.16172 18.9042C1.16172 19.0887 1.31129 19.2383 1.49578 19.2383L18.9042 19.2383C19.0887 19.2383 19.2383 19.0887 19.2383 18.9042L19.2383 1.49578C19.2383 1.31129 19.0887 1.16172 18.9042 1.16172L12.3944 1.16172 12.3944 4.66315C12.3944 4.96613 12.1488 5.21175 11.8458 5.21175L8.55418 5.21175C8.2512 5.21175 8.00558 4.96613 8.00558 4.66315L8.00558 0.548606C8.00558 0.245621 8.2512 0 8.55418 0L9.11803 0 11.8458 0 18.6336 0C19.6091 0 20.4 0.790862 20.4 1.76644L20.4 18.6336C20.4 19.6091 19.6091 20.4 18.6336 20.4L1.76644 20.4C0.790862 20.4 0 19.6091 0 18.6336L0 1.76644C0 0.790862 0.790862 0 1.76644 0Z" fill="#A5A5A5" fill-rule="evenodd" transform="matrix(-0.935705 0.352784 0.352784 0.935705 579.546 759.74)"/><path d="M1.76644 0 5.8363 0 5.97233 0.0274623C6.18769 0.118557 6.3388 0.331803 6.3388 0.580348 6.3388 0.828892 6.18769 1.04214 5.97233 1.13323L5.83121 1.16172 1.49578 1.16172C1.31129 1.16172 1.16172 1.31129 1.16172 1.49578L1.16172 18.9042C1.16172 19.0887 1.31129 19.2383 1.49578 19.2383L18.9042 19.2383C19.0887 19.2383 19.2383 19.0887 19.2383 18.9042L19.2383 1.49578C19.2383 1.31129 19.0887 1.16172 18.9042 1.16172L12.3944 1.16172 12.3944 4.66315C12.3944 4.96613 12.1488 5.21175 11.8458 5.21175L8.55418 5.21175C8.2512 5.21175 8.00558 4.96613 8.00558 4.66315L8.00558 0.548606C8.00558 0.245621 8.2512 0 8.55418 0L9.11803 0 11.8458 0 18.6336 0C19.6091 0 20.4 0.790862 20.4 1.76644L20.4 18.6336C20.4 19.6091 19.6091 20.4 18.6336 20.4L1.76644 20.4C0.790862 20.4 0 19.6091 0 18.6336L0 1.76644C0 0.790862 0.790862 0 1.76644 0Z" fill="#7030A0" fill-rule="evenodd" transform="matrix(-0.955011 0.29657 0.29657 0.955011 181.316 676.116)"/><path d="M1.76644 0 5.8363 0 5.97233 0.0274623C6.18769 0.118557 6.3388 0.331803 6.3388 0.580348 6.3388 0.828892 6.18769 1.04214 5.97233 1.13323L5.83121 1.16172 1.49578 1.16172C1.31129 1.16172 1.16172 1.31129 1.16172 1.49578L1.16172 18.9042C1.16172 19.0887 1.31129 19.2383 1.49578 19.2383L18.9042 19.2383C19.0887 19.2383 19.2383 19.0887 19.2383 18.9042L19.2383 1.49578C19.2383 1.31129 19.0887 1.16172 18.9042 1.16172L12.3944 1.16172 12.3944 4.66315C12.3944 4.96613 12.1488 5.21175 11.8458 5.21175L8.55418 5.21175C8.2512 5.21175 8.00558 4.96613 8.00558 4.66315L8.00558 0.548606C8.00558 0.245621 8.2512 0 8.55418 0L9.11803 0 11.8458 0 18.6336 0C19.6091 0 20.4 0.790862 20.4 1.76644L20.4 18.6336C20.4 19.6091 19.6091 20.4 18.6336 20.4L1.76644 20.4C0.790862 20.4 0 19.6091 0 18.6336L0 1.76644C0 0.790862 0.790862 0 1.76644 0Z" fill="#595959" fill-rule="evenodd" transform="matrix(-0.371534 -0.928419 -0.928419 0.371534 76.2595 992.163)"/><path d="M1.76644 0 5.8363 0 5.97233 0.0274623C6.18769 0.118557 6.3388 0.331803 6.3388 0.580348 6.3388 0.828892 6.18769 1.04214 5.97233 1.13323L5.83121 1.16172 1.49578 1.16172C1.31129 1.16172 1.16172 1.31129 1.16172 1.49578L1.16172 18.9042C1.16172 19.0887 1.31129 19.2383 1.49578 19.2383L18.9042 19.2383C19.0887 19.2383 19.2383 19.0887 19.2383 18.9042L19.2383 1.49578C19.2383 1.31129 19.0887 1.16172 18.9042 1.16172L12.3944 1.16172 12.3944 4.66315C12.3944 4.96613 12.1488 5.21175 11.8458 5.21175L8.55418 5.21175C8.2512 5.21175 8.00558 4.96613 8.00558 4.66315L8.00558 0.548606C8.00558 0.245621 8.2512 0 8.55418 0L9.11803 0 11.8458 0 18.6336 0C19.6091 0 20.4 0.790862 20.4 1.76644L20.4 18.6336C20.4 19.6091 19.6091 20.4 18.6336 20.4L1.76644 20.4C0.790862 20.4 0 19.6091 0 18.6336L0 1.76644C0 0.790862 0.790862 0 1.76644 0Z" fill="#4472C4" fill-rule="evenodd" transform="matrix(-0.921893 -0.387443 -0.387443 0.921893 687.155 970.831)"/><path d="M1.76644 0 5.8363 0 5.97233 0.0274623C6.18769 0.118557 6.3388 0.331803 6.3388 0.580348 6.3388 0.828892 6.18769 1.04214 5.97233 1.13323L5.83121 1.16172 1.49578 1.16172C1.31129 1.16172 1.16172 1.31129 1.16172 1.49578L1.16172 18.9042C1.16172 19.0887 1.31129 19.2383 1.49578 19.2383L18.9042 19.2383C19.0887 19.2383 19.2383 19.0887 19.2383 18.9042L19.2383 1.49578C19.2383 1.31129 19.0887 1.16172 18.9042 1.16172L12.3944 1.16172 12.3944 4.66315C12.3944 4.96613 12.1488 5.21175 11.8458 5.21175L8.55418 5.21175C8.2512 5.21175 8.00558 4.96613 8.00558 4.66315L8.00558 0.548606C8.00558 0.245621 8.2512 0 8.55418 0L9.11803 0 11.8458 0 18.6336 0C19.6091 0 20.4 0.790862 20.4 1.76644L20.4 18.6336C20.4 19.6091 19.6091 20.4 18.6336 20.4L1.76644 20.4C0.790862 20.4 0 19.6091 0 18.6336L0 1.76644C0 0.790862 0.790862 0 1.76644 0Z" fill="#70AD47" fill-rule="evenodd" transform="matrix(-0.840967 -0.541087 -0.541087 0.840967 660.297 696.024)"/><path d="M1.76644 0 5.8363 0 5.97233 0.0274623C6.18769 0.118557 6.3388 0.331803 6.3388 0.580348 6.3388 0.828892 6.18769 1.04214 5.97233 1.13323L5.83121 1.16172 1.49578 1.16172C1.31129 1.16172 1.16172 1.31129 1.16172 1.49578L1.16172 18.9042C1.16172 19.0887 1.31129 19.2383 1.49578 19.2383L18.9042 19.2383C19.0887 19.2383 19.2383 19.0887 19.2383 18.9042L19.2383 1.49578C19.2383 1.31129 19.0887 1.16172 18.9042 1.16172L12.3944 1.16172 12.3944 4.66315C12.3944 4.96613 12.1488 5.21175 11.8458 5.21175L8.55418 5.21175C8.2512 5.21175 8.00558 4.96613 8.00558 4.66315L8.00558 0.548606C8.00558 0.245621 8.2512 0 8.55418 0L9.11803 0 11.8458 0 18.6336 0C19.6091 0 20.4 0.790862 20.4 1.76644L20.4 18.6336C20.4 19.6091 19.6091 20.4 18.6336 20.4L1.76644 20.4C0.790862 20.4 0 19.6091 0 18.6336L0 1.76644C0 0.790862 0.790862 0 1.76644 0Z" fill="#92D050" fill-rule="evenodd" transform="matrix(-0.887937 -0.459965 -0.459965 0.887937 365.349 691.717)"/><path d="M1.76644 0 5.8363 0 5.97233 0.0274623C6.18769 0.118557 6.3388 0.331803 6.3388 0.580348 6.3388 0.828892 6.18769 1.04214 5.97233 1.13323L5.83121 1.16172 1.49578 1.16172C1.31129 1.16172 1.16172 1.31129 1.16172 1.49578L1.16172 18.9042C1.16172 19.0887 1.31129 19.2383 1.49578 19.2383L18.9042 19.2383C19.0887 19.2383 19.2383 19.0887 19.2383 18.9042L19.2383 1.49578C19.2383 1.31129 19.0887 1.16172 18.9042 1.16172L12.3944 1.16172 12.3944 4.66315C12.3944 4.96613 12.1488 5.21175 11.8458 5.21175L8.55418 5.21175C8.2512 5.21175 8.00558 4.96613 8.00558 4.66315L8.00558 0.548606C8.00558 0.245621 8.2512 0 8.55418 0L9.11803 0 11.8458 0 18.6336 0C19.6091 0 20.4 0.790862 20.4 1.76644L20.4 18.6336C20.4 19.6091 19.6091 20.4 18.6336 20.4L1.76644 20.4C0.790862 20.4 0 19.6091 0 18.6336L0 1.76644C0 0.790862 0.790862 0 1.76644 0Z" fill="#595959" fill-rule="evenodd" transform="matrix(0.466775 -0.884376 -0.884376 -0.466775 345.66 1000.26)"/><path d="M1.76644 0 5.8363 0 5.97233 0.0274623C6.18769 0.118557 6.3388 0.331803 6.3388 0.580348 6.3388 0.828892 6.18769 1.04214 5.97233 1.13323L5.83121 1.16172 1.49578 1.16172C1.31129 1.16172 1.16172 1.31129 1.16172 1.49578L1.16172 18.9042C1.16172 19.0887 1.31129 19.2383 1.49578 19.2383L18.9042 19.2383C19.0887 19.2383 19.2383 19.0887 19.2383 18.9042L19.2383 1.49578C19.2383 1.31129 19.0887 1.16172 18.9042 1.16172L12.3944 1.16172 12.3944 4.66315C12.3944 4.96613 12.1488 5.21175 11.8458 5.21175L8.55418 5.21175C8.2512 5.21175 8.00558 4.96613 8.00558 4.66315L8.00558 0.548606C8.00558 0.245621 8.2512 0 8.55418 0L9.11803 0 11.8458 0 18.6336 0C19.6091 0 20.4 0.790862 20.4 1.76644L20.4 18.6336C20.4 19.6091 19.6091 20.4 18.6336 20.4L1.76644 20.4C0.790862 20.4 0 19.6091 0 18.6336L0 1.76644C0 0.790862 0.790862 0 1.76644 0Z" fill="#FFC000" fill-rule="evenodd" transform="matrix(-0.917385 -0.398001 -0.398001 0.917385 525.817 841.085)"/><path d="M1.76644 0 5.8363 0 5.97233 0.0274623C6.18769 0.118557 6.3388 0.331803 6.3388 0.580348 6.3388 0.828892 6.18769 1.04214 5.97233 1.13323L5.83121 1.16172 1.49578 1.16172C1.31129 1.16172 1.16172 1.31129 1.16172 1.49578L1.16172 18.9042C1.16172 19.0887 1.31129 19.2383 1.49578 19.2383L18.9042 19.2383C19.0887 19.2383 19.2383 19.0887 19.2383 18.9042L19.2383 1.49578C19.2383 1.31129 19.0887 1.16172 18.9042 1.16172L12.3944 1.16172 12.3944 4.66315C12.3944 4.96613 12.1488 5.21175 11.8458 5.21175L8.55418 5.21175C8.2512 5.21175 8.00558 4.96613 8.00558 4.66315L8.00558 0.548606C8.00558 0.245621 8.2512 0 8.55418 0L9.11803 0 11.8458 0 18.6336 0C19.6091 0 20.4 0.790862 20.4 1.76644L20.4 18.6336C20.4 19.6091 19.6091 20.4 18.6336 20.4L1.76644 20.4C0.790862 20.4 0 19.6091 0 18.6336L0 1.76644C0 0.790862 0.790862 0 1.76644 0Z" fill="#595959" fill-rule="evenodd" transform="matrix(0.861366 0.507985 0.507985 -0.861366 49.0326 707.487)"/><path d="M1.76644 0 5.8363 0 5.97233 0.0274623C6.18769 0.118557 6.3388 0.331803 6.3388 0.580348 6.3388 0.828892 6.18769 1.04214 5.97233 1.13323L5.83121 1.16172 1.49578 1.16172C1.31129 1.16172 1.16172 1.31129 1.16172 1.49578L1.16172 18.9042C1.16172 19.0887 1.31129 19.2383 1.49578 19.2383L18.9042 19.2383C19.0887 19.2383 19.2383 19.0887 19.2383 18.9042L19.2383 1.49578C19.2383 1.31129 19.0887 1.16172 18.9042 1.16172L12.3944 1.16172 12.3944 4.66315C12.3944 4.96613 12.1488 5.21175 11.8458 5.21175L8.55418 5.21175C8.2512 5.21175 8.00558 4.96613 8.00558 4.66315L8.00558 0.548606C8.00558 0.245621 8.2512 0 8.55418 0L9.11803 0 11.8458 0 18.6336 0C19.6091 0 20.4 0.790862 20.4 1.76644L20.4 18.6336C20.4 19.6091 19.6091 20.4 18.6336 20.4L1.76644 20.4C0.790862 20.4 0 19.6091 0 18.6336L0 1.76644C0 0.790862 0.790862 0 1.76644 0Z" fill="#00B0F0" fill-rule="evenodd" transform="matrix(-0.900865 -0.434098 -0.434098 0.900865 151.617 804.421)"/></g></svg>