<svg width="418" height="418" xmlns="http://www.w3.org/2000/svg" xmlns:xlink="http://www.w3.org/1999/xlink" overflow="hidden"><defs><clipPath id="clip0"><path d="M549 151 967 151 967 569 549 569Z" fill-rule="evenodd" clip-rule="evenodd"/></clipPath></defs><g clip-path="url(#clip0)" transform="translate(-549 -151)"><path d="M550 360C550 245.125 643.125 152 758 152 872.875 152 966 245.125 966 360 966 474.875 872.875 568 758 568 643.125 568 550 474.875 550 360ZM582.723 360C582.723 456.803 661.197 535.277 758 535.277 854.803 535.277 933.277 456.803 933.277 360 933.277 263.197 854.803 184.723 758 184.723 661.197 184.723 582.723 263.197 582.723 360Z" fill="#4CAF50" fill-rule="evenodd"/><path d="M758 360.839C744.816 360.839 734.128 371.477 734.128 384.601 734.128 392.803 738.303 400.035 744.653 404.305L748.012 406.12 748.012 442.764 768.388 442.764 768.388 405.904 771.347 404.305C777.697 400.035 781.872 392.803 781.872 384.601 781.872 371.477 771.184 360.839 758 360.839ZM679.858 333 836.142 333C840.482 333 844 336.502 844 340.822L844 463.178C844 467.498 840.482 471 836.142 471L679.858 471C675.518 471 672 467.498 672 463.178L672 340.822C672 336.502 675.518 333 679.858 333Z" fill="#4CAF50" fill-rule="evenodd"/><path d="M683 327.5C683 283.593 716.355 248 757.5 248 798.203 248 831.372 282.86 831.991 326.29L807.661 326.685C807.252 296.221 784.463 271.889 756.759 272.339 729.345 272.785 707.333 297.35 707.333 327.5Z" fill="#4CAF50" fill-rule="evenodd"/></g></svg>